# xmcd CD database file
#
# Track frame offsets:
#	150
#	14382
#	29684
#	42541
#	53881
#	66376
#	78042
#	89818
#	101820
#	117223
#	131098
#	144968
#	158681
#	171158
#	184688
#	198227
#
# Disc length: 2826 seconds
#
# Revision: 0
# Processed by: cddbd v1.4PL0 Copyright (c) Steve Scherf et al.
# Submitted via: CDex 1.50
#
DISCID=e00b0810
DTITLE=Earl "Fatha" Hines and His Orchestra - Rock And Rye
DYEAR=2001
DGENRE=Jazz
TTITLE0=That's A Plenty
TTITLE1=Fat Babes
TTITLE2=Maple Leaf Rag
TTITLE3=Sweet Georgia Brown
TTITLE4=Rosetta
TTITLE5=Copenhagen
TTITLE6=Angry
TTITLE7=Wolverine Blues
TTITLE8=Rock And Rye
TTITLE9=Cavernism
TTITLE10=Disappointed In Love
TTITLE11=Rhythm Lullaby
TTITLE12=Japanese Sandman
TTITLE13=Bubbling Over
TTITLE14=Blue
TTITLE15=Julia
EXTD=YEAR: 2001
EXTT0=
EXTT1=
EXTT2=
EXTT3=
EXTT4=
EXTT5=
EXTT6=
EXTT7=
EXTT8=
EXTT9=
EXTT10=
EXTT11=
EXTT12=
EXTT13=
EXTT14=
EXTT15=
PLAYORDER=
